<svg xmlns="http://www.w3.org/2000/svg" viewBox="0 0 64 64">
  <rect width="64" height="64" rx="10" fill="#9e2b35"/>
  <g fill="#faf9f6" transform="translate(32 32) scale(0.04768 -0.04768) translate(-467.5 -375.0)">
    <path d="M244 573Q212 573 188.0 597.0Q164 621 164 653Q164 686 188.0 710.0Q212 734 244 734Q277 734 301.0 710.0Q325 686 325 653Q325 621 301.0 597.0Q277 573 244 573ZM142 -11Q103 -11 79.0 9.0Q55 29 55 70Q55 82 58.0 97.5Q61 113 71 153L145 450H279L195 87Q192 73 191.0 65.0Q190 57 190 54Q190 37 203 37Q220 37 249.5 62.5Q279 88 310 156L335 147Q317 93 289.0 58.0Q261 23 224.5 6.0Q188 -11 142 -11ZM48 420V450H222V420Z"/>
    <path transform="translate(300.0 0)" d="M274 -13Q218 -13 174.5 4.0Q131 21 100 49L50 0H15L52 213H82Q118 22 274 22Q330 22 367.5 43.0Q405 64 424.5 95.5Q444 127 444 161Q444 200 421.0 225.5Q398 251 361.5 270.0Q325 289 284.0 308.0Q243 327 206.5 352.5Q170 378 147.0 417.0Q124 456 124 515Q124 579 153.5 635.5Q183 692 237.5 727.5Q292 763 366 763Q415 763 456.0 747.5Q497 732 522 708L562 754H587L553 555H523Q523 612 500.0 650.5Q477 689 439.0 708.5Q401 728 355 728Q313 728 283.0 713.0Q253 698 237.0 673.0Q221 648 221 618Q221 580 244.5 556.0Q268 532 305.0 514.0Q342 496 383.0 477.0Q424 458 461.0 430.5Q498 403 521.5 360.5Q545 318 545 253Q545 175 509.5 115.0Q474 55 413.0 21.0Q352 -13 274 -13Z"/>
  </g>
</svg>
